<svg id="Layer_1" data-name="Layer 1" xmlns="http://www.w3.org/2000/svg" xmlns:xlink="http://www.w3.org/1999/xlink" viewBox="0 0 358.32 68.66"><defs><style>.cls-1{fill:none;}.cls-2{clip-path:url(#clip-path);}.cls-3{fill:#fff;}.cls-4{fill:#d50032;}</style><clipPath id="clip-path" transform="translate(-3.5 -2.84)"><rect class="cls-1" x="3.5" y="2.84" width="358.32" height="68.66"/></clipPath></defs><title>CAMP.FOR.HRZ.SM.INVT.RBG</title><g class="cls-2"><path class="cls-3" d="M96.29,22.66A4.11,4.11,0,0,1,96,24.55h0a2.52,2.52,0,0,1-4.18,0,4.11,4.11,0,0,1-.24-1.89V15.91h-2.2v6.79A5.88,5.88,0,0,0,90,25.9a5.14,5.14,0,0,0,7.87,0,5.86,5.86,0,0,0,.6-3.21V15.91h-2.2Z" transform="translate(-3.5 -2.84)"/><path class="cls-3" d="M112.83,19.84c0,1.09,0,2.4,0,3.27,0,.18,0,.33,0,.46-.21-.33-.5-.8-.68-1.08L107.83,16l0,0h-2V27.53H108V23.62c0-1.61,0-3.1,0-3.86v0c.14.23.33.55.51.84l4.5,6.87,0,0h2V15.91h-2.2Z" transform="translate(-3.5 -2.84)"/><rect class="cls-3" x="118.88" y="13.06" width="2.22" height="11.63"/><path class="cls-3" d="M136.26,23.67l-.32,1.12c-.08-.34-.19-.8-.29-1.12l-2.34-7.77H131l3.58,11.55,0,.07h2.62L141,15.91h-2.3Z" transform="translate(-3.5 -2.84)"/><polygon class="cls-3" points="145.77 19.68 151.19 19.68 151.19 17.68 145.77 17.68 145.77 15.06 151.75 15.06 151.75 13.06 143.55 13.06 143.55 24.69 152.17 24.69 152.17 22.69 145.77 22.69 145.77 19.68"/><path class="cls-3" d="M169.63,22.34a3.35,3.35,0,0,0,1.56-2.89,3.27,3.27,0,0,0-1.68-3,5.76,5.76,0,0,0-2.92-.53H162.3V27.53h2.22V23h1.9l2.65,4.57h2.64l-2.89-4.82a4.75,4.75,0,0,0,.8-.37m-5.11-4.45h2.06a4,4,0,0,1,1.57.21,1.37,1.37,0,0,1,.74,1.3,1.44,1.44,0,0,1-.74,1.33,3.94,3.94,0,0,1-1.57.21h-2.06Z" transform="translate(-3.5 -2.84)"/><path class="cls-3" d="M183.07,20.75l-1.38-.3c-1.35-.3-1.77-.61-1.77-1.34s.78-1.43,2-1.43A3.67,3.67,0,0,1,184.8,19l.06.08,1.69-1.37-.07-.08A5.91,5.91,0,0,0,182,15.7c-2.56,0-4.42,1.47-4.42,3.5,0,2.32,1.87,3,3.51,3.38l1.53.33c1.15.25,1.87.57,1.87,1.38s-.83,1.44-2.22,1.44a3.92,3.92,0,0,1-3.31-1.7l-.06-.1L177,25.27l.06.08a6.19,6.19,0,0,0,5.06,2.38c2.85,0,4.69-1.42,4.69-3.63s-1.44-2.83-3.76-3.36" transform="translate(-3.5 -2.84)"/><rect class="cls-3" x="189.96" y="13.06" width="2.22" height="11.63"/><polygon class="cls-3" points="198.46 15.06 201.8 15.06 201.8 24.69 204.02 24.69 204.02 15.06 207.35 15.06 207.35 13.06 198.46 13.06 198.46 15.06"/><polygon class="cls-3" points="217.67 17.85 214.81 13.06 212.23 13.06 216.46 19.95 216.46 24.69 218.68 24.69 218.68 19.95 223.15 13.06 220.59 13.06 217.67 17.85"/><path class="cls-3" d="M244.71,15.7c-3.3,0-5.51,2.42-5.51,6s2.11,6,5.51,6,5.51-2.3,5.51-6-2.21-6-5.51-6m0,2c1.92,0,3.11,1.54,3.11,4s-1.16,4-3.11,4-3.11-1.49-3.11-4,1.19-4,3.11-4" transform="translate(-3.5 -2.84)"/><polygon class="cls-3" points="260.48 15.06 260.48 13.06 252.91 13.06 252.91 24.69 255.13 24.69 255.13 19.83 260.26 19.83 260.26 17.83 255.13 17.83 255.13 15.06 260.48 15.06"/><rect class="cls-3" x="85.91" y="34.37" width="4.68" height="21.09"/><polygon class="cls-3" points="100.31 34.36 100.31 51.24 108.75 51.24 108.75 55.46 95.63 55.46 95.63 34.36 100.31 34.36"/><polygon class="cls-3" points="116.59 34.36 116.59 51.24 125.02 51.24 125.02 55.46 111.9 55.46 111.9 34.36 116.59 34.36"/><rect class="cls-3" x="128.17" y="34.37" width="4.68" height="21.09"/><path class="cls-3" d="M151.2,45.46c1.67,2.76,3.1,5.4,3.1,5.4h0s-.19-4.16-.19-6.61v-7h4.62V58.3h-4.71l-5-8.13c-1.18-2-3.2-5.68-3.2-5.68h0S146,48,146,51.38V58.3h-4.65V37.21h4.75Z" transform="translate(-3.5 -2.84)"/><path class="cls-3" d="M173,36.84c6.23,0,10.21,4.44,10.21,10.92S179.53,58.67,173,58.67s-10.21-4.47-10.21-10.92,4-10.92,10.21-10.92m0,17.9c3.57,0,5.52-2.57,5.52-7s-2-7.07-5.52-7.07-5.52,2.67-5.52,7.07,1.92,7,5.52,7" transform="translate(-3.5 -2.84)"/><rect class="cls-3" x="183.81" y="34.37" width="4.68" height="21.09"/><path class="cls-3" d="M209.89,43a7.89,7.89,0,0,0-5.46-2.3c-2,0-3.32.81-3.32,2.14s1,1.92,2.88,2.3l3.41.68c3.91.78,6.36,2.33,6.36,6,0,4.37-3.88,6.79-8.87,6.79a12,12,0,0,1-9.52-4.4l3.26-2.79A7.94,7.94,0,0,0,205,54.77c2.45,0,3.88-1,3.88-2.51s-1.24-1.86-3.16-2.2L203,49.52c-3.85-.74-6.76-2.14-6.76-6.27,0-3.78,3.5-6.42,8.13-6.42a11.53,11.53,0,0,1,8.5,3.32Z" transform="translate(-3.5 -2.84)"/><path class="cls-3" d="M243.21,53.68c-1.58,3.1-4.31,5-8.56,5-6.3,0-10.08-4.47-10.08-10.92s4-10.92,10.08-10.92a9,9,0,0,1,8.72,5.4l-3.91,1.64a4.8,4.8,0,0,0-4.75-3.19c-3.47,0-5.46,2.67-5.46,7.07s1.92,7,5.46,7a4.73,4.73,0,0,0,4.65-2.89Z" transform="translate(-3.5 -2.84)"/><polygon class="cls-3" points="247.95 46.71 247.95 55.46 243.27 55.46 243.27 34.37 247.95 34.37 247.95 42.49 255.77 42.49 255.77 34.37 260.45 34.37 260.45 55.46 255.77 55.46 255.77 46.71 247.95 46.71"/><rect class="cls-3" x="265.54" y="34.37" width="4.68" height="21.09"/><path class="cls-3" d="M296.4,53.68c-1.58,3.1-4.31,5-8.56,5-6.3,0-10.08-4.47-10.08-10.92s4-10.92,10.08-10.92a9,9,0,0,1,8.72,5.4l-3.91,1.64a4.8,4.8,0,0,0-4.75-3.19c-3.47,0-5.46,2.67-5.46,7.07s1.92,7,5.46,7a4.73,4.73,0,0,0,4.65-2.89Z" transform="translate(-3.5 -2.84)"/><path class="cls-3" d="M302.91,58.3H298l7.1-21.09h5.68l7,21.09h-5l-1.24-4.19h-7.41Zm5.68-14c-.37-1.33-.71-2.73-.71-2.73h0s-.37,1.4-.78,2.76l-1.8,5.93h5.06Z" transform="translate(-3.5 -2.84)"/><path class="cls-3" d="M329.09,36.84a9,9,0,0,1,8.72,5.4l-3.91,1.64a4.8,4.8,0,0,0-4.75-3.19c-3.47,0-5.49,2.67-5.49,7.07s2,7.17,5.52,7.17c3.07,0,4.47-2,4.72-4.47h-6V46.33h10v12h-4.1V56.44a7.21,7.21,0,0,1-5.49,2.23c-5.77,0-9.34-4.47-9.34-10.92s4-10.92,10.08-10.92" transform="translate(-3.5 -2.84)"/><path class="cls-3" d="M351.61,36.84c6.23,0,10.21,4.44,10.21,10.92s-3.69,10.92-10.21,10.92S341.4,54.21,341.4,47.76s4-10.92,10.21-10.92m0,17.9c3.57,0,5.52-2.57,5.52-7s-2-7.07-5.52-7.07-5.52,2.67-5.52,7.07,1.92,7,5.52,7" transform="translate(-3.5 -2.84)"/><rect class="cls-3" x="31.74" y="24.17" width="6.72" height="22.39"/><path class="cls-3" d="M24.45,40.38a4.77,4.77,0,0,1-.76,3.16,3.24,3.24,0,0,1-2.63.92,3.24,3.24,0,0,1-2.63-.92,4.77,4.77,0,0,1-.76-3.16V27H10.94V40.25c0,3.13.33,4.64,1.22,6.16,1.48,2.47,5.43,3.42,8.89,3.42s7.41-1,8.89-3.42c.89-1.52,1.22-3,1.22-6.16V27H24.45Z" transform="translate(-3.5 -2.84)"/><path class="cls-3" d="M56.38,44.37c-2.86,0-4.32-2.31-4.32-6.16S53.52,32,56.38,32c2.11,0,3.33,1.28,3.89,3.45l5.83-2.8c-1.12-2.93-4.28-6-9.61-6-7,0-11.26,4.71-11.26,11.59s4,11.59,11.13,11.59c5.1,0,8.3-2.47,9.88-6.06l-6.09-2.17a3.72,3.72,0,0,1-3.75,2.8" transform="translate(-3.5 -2.84)"/><path class="cls-4" d="M37.83,2.84A34.33,34.33,0,1,0,72.16,37.17,34.33,34.33,0,0,0,37.83,2.84M18.42,43.55a3.24,3.24,0,0,0,2.64.92,3.24,3.24,0,0,0,2.63-.92,4.77,4.77,0,0,0,.76-3.16V27h6.72V40.25c0,3.13-.33,4.64-1.22,6.16-1.48,2.47-5.43,3.42-8.89,3.42s-7.41-1-8.89-3.42c-.89-1.52-1.22-3-1.22-6.16V27h6.72V40.38a4.77,4.77,0,0,0,.76,3.16M35.25,27H42V49.41H35.25ZM56.35,49.8c-7.08,0-11.13-4.74-11.13-11.59S49.5,26.62,56.49,26.62c5.33,0,8.49,3.06,9.61,6l-5.83,2.8C59.71,33.24,58.49,32,56.38,32c-2.86,0-4.31,2.37-4.31,6.25s1.45,6.16,4.31,6.16a3.72,3.72,0,0,0,3.75-2.8l6.09,2.17c-1.58,3.59-4.78,6.06-9.88,6.06" transform="translate(-3.5 -2.84)"/></g></svg>